#!OML:ASF H:\Terrain\Patient Classification 1\Walking\liu\liu.ASF
:FULLY-SPECIFIED
:DEGREES
1
root 7.45639 15.9172 -34.5742 9.79279 -6.80264 -5.75926
lowerback -3.85337 2.89784 1.91502
upperback 0.172467 3.69463 3.53109
thorax 2.22335 1.84681 2.77114
lowerneck -22.8092 -5.49701 -12.9642
upperneck 19.4526 -6.95277 14.9638
head 11.1023 -2.3879 6.56232
rclavicle 2.127e-014 1.11319e-014
rhumerus -26.7827 25.6802 -84.2128
rradius 46.8273
rwrist -22.8795
rhand -31.5702 -25.7312
rfingers 7.12502
rthumb -4.83377 -55.656
lclavicle 2.127e-014 1.11319e-014
lhumerus -52.5241 1.36877 85.771
lradius 20.0577
lwrist -4.61049
lhand -8.52068 -21.676
lfingers 7.12502
lthumb 17.4078 7.56447
rfemur 3.23851 2.84691 30.7247
rtibia 14.9443
rfoot -16.3679 2.88033
rtoes -18.5175
lfemur -43.6674 7.31684 -16.2326
ltibia 23.2258
lfoot -13.3402 9.9773
ltoes -14.4347
2
root 7.4626 15.913 -34.3475 9.94107 -6.99669 -5.85983
lowerback -4.06051 2.88134 1.87882
upperback 0.163439 3.66355 3.6291
thorax 2.32256 1.83011 2.90281
lowerneck -22.7655 -5.55339 -13.1723
upperneck 19.3028 -6.95352 14.9855
head 11.0479 -2.40449 6.59984
rclavicle -3.30976e-014 -1.47101e-014
rhumerus -26.2016 26.4732 -84.0021
rradius 47.5315
rwrist -23.3847
rhand -32.2218 -25.4899
rfingers 7.12502
rthumb -5.4629 -55.3995
lclavicle -3.30976e-014 -1.47101e-014
lhumerus -52.898 3.51632 83.7618
lradius 18.9539
lwrist -7.21933
lhand -8.34461 -22.6386
lfingers 7.12502
lthumb 17.5772 6.58687
rfemur 4.57458 3.0845 30.6487
rtibia 13.5599
rfoot -15.7011 2.86049
rtoes -21.9952
lfemur -43.4466 5.86569 -15.0294
ltibia 20.6362
lfoot -13.4645 11.1835
ltoes -13.6145
3
root 7.4709 15.9104 -34.1179 10.0116 -7.13325 -6.32125
lowerback -4.18129 2.95952 2.36304
upperback 0.157905 3.73614 3.69903
thorax 2.40862 1.87099 2.71719
lowerneck -22.5127 -5.54719 -13.0994
upperneck 19.0503 -6.98639 15.039
head 10.9135 -2.4185 6.58943
rclavicle -3.32964e-014 1.98785e-015
rhumerus -25.6593 26.8664 -83.8639
rradius 48.0737
rwrist -23.7996
rhand -32.8715 -25.5014
rfingers 7.12502
rthumb -6.09015 -55.3939
lclavicle -3.32964e-014 1.98785e-015
lhumerus -53.3902 4.49143 82.4839
lradius 18.2502
lwrist -8.52746
lhand -8.35939 -23.1048
lfingers 7.12502
lthumb 17.563 6.12195
rfemur 6.28815 2.88471 30.8832
rtibia 11.4602
rfoot -14.4786 3.00168
rtoes -23.0283
lfemur -43.6054 4.40915 -13.3462
ltibia 19.2855
lfoot -13.9764 12.5886
ltoes -10.4513
4
root 7.47759 15.8989 -33.8894 10.1404 -7.30305 -6.75881
lowerback -4.17176 3.07172 2.79748
upperback 0.0403423 3.86888 3.71722
thorax 2.30601 1.94158 2.49751
lowerneck -22.3386 -5.54072 -13.0294
upperneck 18.8462 -7.03289 15.1697
head 10.8185 -2.42745 6.61023
rclavicle 2.27111e-014 -8.34896e-015
rhumerus -25.223 26.963 -83.7727
rradius 48.3709
rwrist -23.6195
rhand -32.7345 -24.6138
rfingers 7.12502
rthumb -5.9579 -54.51
lclavicle 2.27111e-014 -8.34896e-015
lhumerus -53.7815 5.51073 80.9555
lradius 17.3677
lwrist -9.856
lhand -8.43656 -22.6566
lfingers 7.12502
lthumb 17.4887 6.57677
rfemur 8.00388 3.07438 31.098
rtibia 9.52845
rfoot -13.4107 3.08868
rtoes -20.8803
lfemur -43.6733 3.72439 -12.218
ltibia 17.7101
lfoot -13.7337 13.8056
ltoes -11.1486
5
root 7.484 15.8897 -33.6629 10.21 -7.43688 -6.91464
lowerback -4.06642 3.11473 2.83872
upperback -0.10827 3.93635 3.74649
thorax 2.09305 1.97508 2.49595
lowerneck -22.2084 -5.55686 -13.1093
upperneck 18.7552 -7.07414 15.3273
head 10.7792 -2.4404 6.67427
rclavicle -7.10655e-015 -1.19271e-015
rhumerus -24.9097 27.0423 -83.6497
rradius 48.6148
rwrist -23.2802
rhand -32.8823 -25.1969
rfingers 7.12502
rthumb -6.10062 -55.089
lclavicle -7.10655e-015 -1.19271e-015
lhumerus -54.2366 7.36564 78.62
lradius 16.2038
lwrist -12.4434
lhand -8.20001 -22.8111
lfingers 7.12502
lthumb 17.7164 6.40184
rfemur 10.1442 3.18879 31.0069
rtibia 7.22288
rfoot -12.1112 3.42552
rtoes -19.823
lfemur -43.8038 3.39983 -11.7609
ltibia 16.7052
lfoot -13.6513 14.5815
ltoes -13.3899
